<?xml version="1.0" encoding="utf-8"?>
<!-- Generator: Adobe Illustrator 27.8.1, SVG Export Plug-In . SVG Version: 6.00 Build 0)  -->
<svg version="1.1" id="a" xmlns="http://www.w3.org/2000/svg" xmlns:xlink="http://www.w3.org/1999/xlink" x="0px" y="0px"
	 viewBox="0 0 512 131.9" style="enable-background:new 0 0 512 131.9;" xml:space="preserve">
<style type="text/css">
	.st0{fill:#F05A22;}
	.st1{fill:#19357E;}
</style>
<g>
	<g>
		<g>
			<path class="st0" d="M75.3,27.9c1.9,0,3.6,1,4.5,2.6l3.8,6.5c1.6,2.8,3,5.6,4.5,8.2h0.2c1.5-2.9,2.8-5.7,4.3-8.4l3.3-6.1
				c0.9-1.7,2.7-2.8,4.6-2.8h5.3c4.2,0,6.8,4.8,4.3,8.3L97.9,54L111,74.6c2.2,3.5-0.3,8.1-4.4,8.1H100c-1.9,0-3.7-1-4.6-2.7l-4-7.2
				c-1.6-2.7-2.9-5.5-4.3-8.3h-0.3c-1.3,2.9-2.8,5.6-4.1,8.3l-3.7,7c-0.9,1.7-2.7,2.8-4.7,2.8h-5.7c-4.2,0-6.7-4.7-4.4-8.2
				l13.1-19.7L64.8,36.1c-2.4-3.5,0.2-8.2,4.4-8.2L75.3,27.9L75.3,27.9z"/>
			<path class="st1" d="M161.2,75.8c0.5,3.4-1.7,6.6-5.1,7.2c-2.7,0.5-5.9,0.8-9.3,0.8c-17.7,0-29-10.8-29-28
				c0-16,11-29.1,31.4-29.1c2.1,0,4.3,0.2,6.5,0.5c3.6,0.5,6,4,5.3,7.5l-0.1,0.3c-0.7,3.2-3.6,5.4-6.9,5c-1.2-0.2-2.5-0.2-4-0.2
				c-9,0-14.8,6.4-14.7,15.3c0,10.1,6.7,15.3,15,15.3c1.3,0,2.6-0.1,3.8-0.2c3.4-0.4,6.5,1.8,7.1,5.2L161.2,75.8L161.2,75.8z"/>
			<path class="st1" d="M183.4,60.7c0.6,7.1,7.5,10.4,15.5,10.4c3.4,0,6.5-0.3,9.4-0.8c3.2-0.6,6.3,1.6,6.9,4.8l0,0
				c0.6,3.2-1.3,6.3-4.4,7c-4.4,1.1-9.2,1.6-14.4,1.6c-18.6,0-29.2-10.8-29.2-27.9c0-13.9,8.6-29.2,27.7-29.2
				c17.7,0,24.4,13.8,24.4,27.3c0,0,0,0.1,0,0.1c0,3.7-3,6.6-6.7,6.6L183.4,60.7L183.4,60.7z M203.4,49.1c0-4.1-1.8-11.1-9.6-11.1
				c-7.2,0-10.1,6.5-10.5,11.1H203.4z"/>
			<path class="st1" d="M235.1,3.2h5.6c3.1,0,5.7,2.5,5.7,5.7V77c0,3.2-2.6,5.7-5.7,5.7h-5.6c-3.1,0-5.7-2.6-5.7-5.7V8.9
				C229.4,5.7,232,3.2,235.1,3.2z"/>
			<path class="st1" d="M273.3,60.7c0.6,7.1,7.5,10.4,15.5,10.4c3.5,0,6.5-0.3,9.4-0.8c3.2-0.6,6.3,1.6,7,4.8l0,0
				c0.6,3.2-1.3,6.3-4.5,7c-4.4,1.1-9.2,1.6-14.4,1.6c-18.6,0-29.2-10.8-29.2-27.9c0-13.9,8.6-29.2,27.7-29.2
				c17.7,0,24.4,13.8,24.4,27.3c0,0,0,0.1,0,0.1c0,3.7-3,6.6-6.7,6.6L273.3,60.7L273.3,60.7z M293.4,49.1c0-4.1-1.8-11.1-9.6-11.1
				c-7.2,0-10.1,6.5-10.5,11.1H293.4z"/>
			<path class="st1" d="M319.3,45.4c0-3.5-0.1-6.7-0.1-9.6c-0.1-4.3,3.3-7.8,7.6-7.8l0,0c3.9,0,7.2,3,7.6,6.8l0.1,0.7h0.3
				c2.2-3.5,7.8-8.7,16.9-8.7c11.2,0,19.6,7.4,19.6,23.5v24.9c0,4.2-3.4,7.6-7.6,7.6h-1.8c-4.2,0-7.6-3.4-7.6-7.6V52.3
				c0-7.1-2.5-11.9-8.6-11.9c-4.7,0-7.5,3.2-8.6,6.4c-0.5,1-0.7,2.7-0.7,4.3v24c0,4.2-3.4,7.6-7.6,7.6H327c-4.2,0-7.6-3.4-7.6-7.6
				L319.3,45.4L319.3,45.4z"/>
			<path class="st1" d="M425.2,75.8c0.5,3.4-1.7,6.6-5.1,7.2c-2.7,0.5-5.9,0.8-9.3,0.8c-17.7,0-29-10.8-29-28
				c0-16,11-29.1,31.4-29.1c2.1,0,4.3,0.2,6.5,0.5c3.6,0.5,6,4,5.3,7.5l-0.1,0.3c-0.7,3.2-3.6,5.4-6.9,5c-1.2-0.2-2.5-0.2-4-0.2
				c-9,0-14.8,6.4-14.7,15.3c0,10.1,6.7,15.3,15,15.3c1.3,0,2.6-0.1,3.8-0.2c3.4-0.4,6.5,1.8,7.1,5.2L425.2,75.8L425.2,75.8z"/>
			<path class="st1" d="M441,27.9h6c3.1,0,5.5,2.5,5.5,5.5v43.7c0,3.1-2.5,5.5-5.5,5.5h-6c-3.1,0-5.5-2.5-5.5-5.5V33.5
				C435.5,30.4,438,27.9,441,27.9z"/>
			<path class="st1" d="M502.9,82.7c-3.2,0-6-2.3-6.6-5.5l0,0H496c-3.6,4.4-9.2,6.7-15.7,6.7c-11.1,0-17.7-8.1-17.7-16.8
				c0-14.2,12.8-21.1,32.1-21v-0.8c0-2.9-1.6-7.1-10-7.1c-3.3,0-6.7,0.7-9.7,1.7c-3.1,1-6.4-0.7-7.2-3.8l0,0
				c-0.8-2.8,0.7-5.9,3.5-6.8c4.1-1.5,9.7-2.7,16.5-2.7c18.3,0,24.1,10.8,24.1,23.6v19c0,2.2,0,4.3,0.1,6.3c0.2,3.8-2.9,7-6.7,7
				L502.9,82.7L502.9,82.7z M495.3,56.8c-9-0.1-15.9,2-15.9,8.6c0,4.4,2.9,6.5,6.7,6.5c4.3,0,7.7-2.8,8.9-6.3
				c0.2-0.9,0.3-1.9,0.3-2.9L495.3,56.8L495.3,56.8z"/>
			<path class="st1" d="M57.5,54.1c0.1,3.6-2.8,7-6.5,7c-0.2,0-18.9,0-19.1,0c-6.2,0.2-8.8-8.1-4.1-11.8c0,0,0.1-0.1,0.2-0.1l0,0
				l4.4,3.8c0.6-4.7,1.2-9.4,1.8-14c-5.2,0.8-10.4,1.5-15.5,2.3l4.4,3.8c-4.4,2-8,7.5-8.1,12.1c-1,7,4.1,13.2,11.1,13.2
				c0,0,16.3,0,23.6,0c1.5,0,2.4,1.7,1.5,2.9c0,0,0,0,0,0c-1,1.4-4,4.4-7.5,6.6c-2.6,1.6-5.8,2.8-8.4,3.4c-6,1.4-14.4,1.2-21.8-3.7
				C3.5,73-1.4,62.1,0.3,50.8C5.9,17,55.5,19.1,57.5,54.1z"/>
		</g>
		<circle class="st0" cx="444" cy="11.4" r="8.5"/>
	</g>
	<g>
		<path class="st1" d="M0,120.9V101c0-0.9,0.5-1.5,1.5-1.5h7.6c4.6,0,7.1,3.1,7.1,6.8s-2.6,6.8-7.1,6.8H2.8v7.8
			c0,0.8-0.6,1.4-1.4,1.4C0.6,122.3,0,121.6,0,120.9L0,120.9z M8.8,102h-6v8.6h5.9c2.7,0,4.5-1.8,4.5-4.3S11.4,102,8.8,102L8.8,102z
			"/>
		<path class="st1" d="M26.5,105.3c5,0,7.9,3.9,7.9,8.2c0,0.8-0.5,1.3-1.5,1.3H21.1c0.2,3.1,2.4,5.7,5.9,5.7c1.6,0,3.1-0.5,4.4-1.6
			c0.2-0.1,0.4-0.1,0.6-0.1c0.6,0,1,0.4,1,1c0,0.3-0.2,0.7-0.4,0.8c-1.6,1.3-3.6,1.9-5.9,1.9c-4.9,0-8.4-3.5-8.4-8.6
			C18.5,109.2,21.9,105.4,26.5,105.3L26.5,105.3z M21.1,112.9h10.8c0-2.4-1.7-5.5-5.4-5.5C23,107.5,21.3,110.4,21.1,112.9
			L21.1,112.9z"/>
		<path class="st1" d="M37.6,113.9c0-4.8,3.1-8.6,8.1-8.6s8.1,3.8,8.1,8.6s-3.1,8.6-8.1,8.6S37.6,118.7,37.6,113.9z M51.2,113.9
			c0-3.3-1.9-6.3-5.4-6.3s-5.5,3-5.5,6.3s2,6.4,5.5,6.4S51.2,117.3,51.2,113.9z"/>
		<path class="st1" d="M73.4,113.9c0,5.3-3,8.6-7.3,8.6c-2.2,0-4.2-1.1-5.5-2.9v7.7c0,0.7-0.6,1.3-1.3,1.3c-0.7,0-1.3-0.6-1.3-1.3
			v-20.4c0-0.7,0.6-1.3,1.3-1.3s1.3,0.6,1.3,1.3v1.3c1.2-1.7,3.2-2.9,5.5-2.9C70.4,105.3,73.4,108.6,73.4,113.9z M70.7,113.9
			c0-3.6-2-6.3-5.3-6.3c-2,0-4,1.2-4.9,2.6v7.4c0.9,1.4,2.9,2.7,4.9,2.7C68.7,120.3,70.7,117.6,70.7,113.9z"/>
		<path class="st1" d="M77.5,121.1v-20.4c0-0.7,0.6-1.3,1.3-1.3s1.3,0.6,1.3,1.3v20.4c0,0.7-0.6,1.3-1.3,1.3
			C78.1,122.3,77.5,121.7,77.5,121.1z"/>
		<path class="st1" d="M92.3,105.3c5,0,7.9,3.9,7.9,8.2c0,0.8-0.5,1.3-1.5,1.3H86.9c0.2,3.1,2.4,5.7,5.9,5.7c1.6,0,3.1-0.5,4.4-1.6
			c0.2-0.1,0.4-0.1,0.6-0.1c0.6,0,1.1,0.4,1.1,1c0,0.3-0.2,0.7-0.4,0.8c-1.6,1.3-3.6,1.9-5.8,1.9c-4.9,0-8.4-3.5-8.4-8.6
			C84.2,109.2,87.6,105.4,92.3,105.3L92.3,105.3z M86.9,112.9h10.8c0-2.4-1.7-5.5-5.4-5.5C88.8,107.5,87,110.4,86.9,112.9
			L86.9,112.9z"/>
		<path class="st1" d="M113.2,120.9V101c0-0.9,0.5-1.5,1.5-1.5h12.2c0.7,0,1.3,0.6,1.3,1.3s-0.6,1.3-1.3,1.3H116v7.3h10.7
			c0.7,0,1.3,0.6,1.3,1.3s-0.6,1.3-1.3,1.3H116v9.1c0,0.8-0.7,1.4-1.4,1.4C113.8,122.3,113.2,121.7,113.2,120.9L113.2,120.9z"/>
		<path class="st1" d="M131.3,100.7c0-0.9,0.8-1.7,1.7-1.7s1.7,0.8,1.7,1.7s-0.8,1.7-1.7,1.7S131.3,101.7,131.3,100.7z M131.8,121.1
			v-14.2c0-0.7,0.6-1.3,1.3-1.3s1.3,0.6,1.3,1.3v14.2c0,0.7-0.6,1.3-1.3,1.3S131.8,121.7,131.8,121.1z"/>
		<path class="st1" d="M147.6,106.7c0,0.6-0.5,1.2-1.4,1.3c-1.5,0.1-3.5,1.3-4.2,2.6v10.5c0,0.7-0.6,1.3-1.3,1.3
			c-0.7,0-1.3-0.6-1.3-1.3v-14.2c0-0.7,0.6-1.3,1.3-1.3c0.7,0,1.3,0.6,1.3,1.3v1.5c1-1.3,2.4-2.4,3.7-2.8c0.3-0.1,0.5-0.2,0.8-0.2
			C147.2,105.5,147.6,106.1,147.6,106.7L147.6,106.7z"/>
		<path class="st1" d="M149.5,119.7c0-0.6,0.5-1.1,1.1-1.1c0.2,0,0.5,0.1,0.7,0.2c1.2,1,2.8,1.7,4.7,1.7c2.5,0,3.9-1.1,3.9-2.7
			c0-1.8-2-2.4-4.2-2.9c-2.8-0.7-5.9-1.4-5.9-4.8c0-2.6,2.2-4.7,6.1-4.7c2.4,0,4.1,0.8,5.4,1.8c0.2,0.2,0.4,0.5,0.4,0.8
			c0,0.6-0.5,1.1-1.1,1.1c-0.2,0-0.4-0.1-0.6-0.2c-1-0.9-2.5-1.4-4.2-1.4c-2.2,0-3.6,1-3.6,2.5c0,1.6,1.9,2.1,4,2.6
			c2.9,0.7,6.1,1.5,6.1,5.1c0,2.8-2.2,5-6.5,5c-2.3,0-4.2-0.6-5.9-1.9C149.6,120.4,149.5,120.1,149.5,119.7L149.5,119.7z"/>
		<path class="st1" d="M173.5,121.1c0,0.5-0.2,0.8-0.6,0.9c-0.6,0.3-1.3,0.5-2.3,0.5c-2.4,0-3.6-1.4-3.6-3.8V108h-1.7
			c-0.6,0-1.1-0.5-1.1-1.1s0.5-1.1,1.1-1.1h1.7v-3.4c0-0.7,0.6-1.3,1.3-1.3s1.3,0.6,1.3,1.3v3.4h2.4c0.6,0,1.2,0.5,1.2,1.1
			s-0.5,1.1-1.2,1.1h-2.4v10.2c0,1.2,0.5,2.1,1.7,2.1c0.7,0,0.9-0.3,1.3-0.3C173.1,120,173.5,120.4,173.5,121.1L173.5,121.1z"/>
		<path class="st1" d="M185.3,120.9v-20.2c0-0.8,0.6-1.4,1.4-1.4c0.8,0,1.4,0.7,1.4,1.4v20.2c0,0.8-0.6,1.4-1.4,1.4
			C185.9,122.3,185.3,121.7,185.3,120.9z"/>
		<path class="st1" d="M199,120.9V102H193c-0.7,0-1.3-0.6-1.3-1.3s0.6-1.3,1.3-1.3h15c0.7,0,1.3,0.6,1.3,1.3s-0.6,1.3-1.3,1.3h-6.1
			v18.9c0,0.8-0.6,1.4-1.4,1.4S199.1,121.7,199,120.9L199,120.9z"/>
		<path class="st1" d="M220.6,118.8c0-0.8,0.6-1.4,1.4-1.4c0.3,0,0.6,0.1,0.9,0.3c1.5,1.3,3.6,2.4,6.2,2.4c4.1,0,5.3-2.2,5.3-3.9
			c0-2.7-2.8-3.5-5.8-4.3c-3.6-0.9-7.7-2-7.7-6.4c0-3.7,3.3-6.3,8-6.3c2.9,0,5,0.8,7,2.3c0.4,0.2,0.6,0.7,0.6,1.1
			c0,0.7-0.6,1.4-1.3,1.4c-0.3,0-0.6-0.1-0.8-0.3c-1.6-1.4-3.6-2-5.6-2c-2.9,0-4.9,1.5-4.9,3.6c0,2.3,2.6,3,5.5,3.7
			c3.7,1,7.9,2.1,7.9,6.9c0,3.3-2.2,6.7-8.4,6.7c-3.3,0-5.9-1.1-7.8-2.8C220.8,119.6,220.6,119.2,220.6,118.8L220.6,118.8z"/>
		<path class="st1" d="M248.5,105.3c5,0,7.9,3.9,7.9,8.2c0,0.8-0.5,1.3-1.5,1.3h-11.8c0.2,3.1,2.4,5.7,5.9,5.7
			c1.6,0,3.1-0.5,4.4-1.6c0.2-0.1,0.4-0.1,0.6-0.1c0.6,0,1.1,0.4,1.1,1c0,0.3-0.2,0.7-0.4,0.8c-1.6,1.3-3.6,1.9-5.9,1.9
			c-4.9,0-8.4-3.5-8.4-8.6C240.4,109.2,243.8,105.4,248.5,105.3L248.5,105.3z M243.1,112.9h10.8c0-2.4-1.7-5.5-5.4-5.5
			C245,107.5,243.3,110.4,243.1,112.9L243.1,112.9z"/>
		<path class="st1" d="M268.7,106.7c0,0.6-0.5,1.2-1.4,1.3c-1.5,0.1-3.5,1.3-4.2,2.6v10.5c0,0.7-0.6,1.3-1.3,1.3
			c-0.7,0-1.3-0.6-1.3-1.3v-14.2c0-0.7,0.6-1.3,1.3-1.3c0.7,0,1.3,0.6,1.3,1.3v1.5c1-1.3,2.4-2.4,3.7-2.8c0.3-0.1,0.5-0.2,0.8-0.2
			C268.3,105.5,268.7,106.1,268.7,106.7L268.7,106.7z"/>
		<path class="st1" d="M285.2,106.9c0,0.2-0.1,0.4-0.1,0.5l-5.7,13.7c-0.3,0.8-1,1.2-1.8,1.2c-0.9,0-1.6-0.5-1.9-1.2l-5.7-13.7
			c0-0.2-0.1-0.3-0.1-0.5c0-0.7,0.5-1.3,1.3-1.3c0.5,0,1,0.3,1.2,0.8l5.2,12.8l5.2-12.8c0.2-0.4,0.7-0.8,1.2-0.8
			C284.7,105.6,285.2,106.2,285.2,106.9L285.2,106.9z"/>
		<path class="st1" d="M288,100.7c0-0.9,0.8-1.7,1.7-1.7s1.7,0.8,1.7,1.7s-0.8,1.7-1.7,1.7S288,101.7,288,100.7z M288.4,121.1v-14.2
			c0-0.7,0.6-1.3,1.3-1.3s1.3,0.6,1.3,1.3v14.2c0,0.7-0.6,1.3-1.3,1.3S288.4,121.7,288.4,121.1z"/>
		<path class="st1" d="M303.3,105.3c2.4,0,4,0.8,5.3,2c0.2,0.2,0.4,0.5,0.4,0.8c0,0.7-0.5,1.2-1.2,1.2c-0.3,0-0.6-0.1-0.8-0.3
			c-1-1.1-2.2-1.5-3.6-1.5c-3.5,0-5.7,2.7-5.7,6.3s2.2,6.4,5.7,6.4c1.4,0,2.5-0.4,3.6-1.5c0.2-0.2,0.5-0.3,0.8-0.3
			c0.6,0,1.2,0.5,1.2,1.2c0,0.3-0.2,0.7-0.4,0.8c-1.3,1.3-2.9,2-5.3,2c-4.9,0-8.2-3.7-8.2-8.6S298.4,105.4,303.3,105.3L303.3,105.3z
			"/>
		<path class="st1" d="M320,105.3c5,0,7.9,3.9,7.9,8.2c0,0.8-0.5,1.3-1.5,1.3h-11.8c0.2,3.1,2.4,5.7,5.9,5.7c1.6,0,3.1-0.5,4.4-1.6
			c0.2-0.1,0.4-0.1,0.6-0.1c0.6,0,1,0.4,1,1c0,0.3-0.2,0.7-0.4,0.8c-1.6,1.3-3.6,1.9-5.9,1.9c-4.9,0-8.4-3.5-8.4-8.6
			C311.9,109.2,315.3,105.4,320,105.3L320,105.3z M314.6,112.9h10.8c0-2.4-1.7-5.5-5.4-5.5C316.5,107.5,314.8,110.4,314.6,112.9
			L314.6,112.9z"/>
		<path class="st1" d="M330.9,119.7c0-0.6,0.5-1.1,1.1-1.1c0.2,0,0.5,0.1,0.7,0.2c1.2,1,2.8,1.7,4.7,1.7c2.5,0,3.9-1.1,3.9-2.7
			c0-1.8-2-2.4-4.2-2.9c-2.8-0.7-6-1.4-6-4.8c0-2.6,2.2-4.7,6.1-4.7c2.4,0,4.1,0.8,5.4,1.8c0.2,0.2,0.4,0.5,0.4,0.8
			c0,0.6-0.5,1.1-1.1,1.1c-0.2,0-0.4-0.1-0.6-0.2c-1-0.9-2.5-1.4-4.2-1.4c-2.2,0-3.6,1-3.6,2.5c0,1.6,1.9,2.1,4,2.6
			c2.9,0.7,6.1,1.5,6.1,5.1c0,2.8-2.2,5-6.5,5c-2.3,0-4.2-0.6-5.9-1.9C331,120.4,330.9,120.1,330.9,119.7L330.9,119.7z"/>
		<path class="st1" d="M356.7,120.7V101c0-0.9,0.5-1.5,1.5-1.5h12.2c0.7,0,1.3,0.6,1.3,1.3s-0.6,1.3-1.3,1.3h-10.9v7.3h10.7
			c0.7,0,1.3,0.6,1.3,1.3s-0.6,1.3-1.3,1.3h-10.7v7.8h10.9c0.7,0,1.3,0.6,1.3,1.3s-0.6,1.3-1.3,1.3h-12.2
			C357.3,122.2,356.7,121.7,356.7,120.7L356.7,120.7z"/>
		<path class="st1" d="M383.2,105.3c2.4,0,4,0.8,5.3,2c0.2,0.2,0.4,0.5,0.4,0.8c0,0.7-0.5,1.2-1.2,1.2c-0.3,0-0.6-0.1-0.8-0.3
			c-1-1.1-2.2-1.5-3.6-1.5c-3.5,0-5.7,2.7-5.7,6.3s2.2,6.4,5.7,6.4c1.4,0,2.5-0.4,3.6-1.5c0.2-0.2,0.5-0.3,0.8-0.3
			c0.6,0,1.2,0.5,1.2,1.2c0,0.3-0.2,0.7-0.4,0.8c-1.3,1.3-2.9,2-5.3,2c-4.9,0-8.2-3.7-8.2-8.6S378.3,105.4,383.2,105.3L383.2,105.3z
			"/>
		<path class="st1" d="M391.8,113.9c0-4.8,3.1-8.6,8.1-8.6s8.1,3.8,8.1,8.6s-3.1,8.6-8.1,8.6S391.8,118.7,391.8,113.9z M405.4,113.9
			c0-3.3-1.9-6.3-5.4-6.3s-5.5,3-5.5,6.3s2,6.4,5.5,6.4S405.4,117.3,405.4,113.9z"/>
		<path class="st1" d="M411.1,119.7c0-0.6,0.5-1.1,1.1-1.1c0.2,0,0.5,0.1,0.7,0.2c1.2,1,2.8,1.7,4.7,1.7c2.5,0,3.9-1.1,3.9-2.7
			c0-1.8-2-2.4-4.2-2.9c-2.8-0.7-6-1.4-6-4.8c0-2.6,2.2-4.7,6.1-4.7c2.4,0,4.1,0.8,5.4,1.8c0.2,0.2,0.4,0.5,0.4,0.8
			c0,0.6-0.5,1.1-1.1,1.1c-0.2,0-0.4-0.1-0.6-0.2c-1-0.9-2.5-1.4-4.2-1.4c-2.2,0-3.6,1-3.6,2.5c0,1.6,1.9,2.1,4,2.6
			c2.9,0.7,6.1,1.5,6.1,5.1c0,2.8-2.2,5-6.5,5c-2.3,0-4.2-0.6-5.9-1.9C411.2,120.4,411.1,120.1,411.1,119.7L411.1,119.7z"/>
		<path class="st1" d="M428.4,126.5c0.1,0,0.3,0,0.5,0c1.1,0,1.9-0.4,2.5-1.7l1.1-2.5l-6.2-15c-0.1-0.2-0.1-0.3-0.1-0.5
			c0-0.7,0.5-1.3,1.3-1.3c0.5,0,1,0.3,1.2,0.8l5.2,12.8l5.2-12.8c0.2-0.4,0.7-0.8,1.2-0.8c0.8,0,1.3,0.6,1.3,1.3
			c0,0.2,0,0.3-0.1,0.5l-7.5,18.1c-1,2.4-2.6,3.3-4.8,3.3c-0.2,0-0.5,0-0.8-0.1c-0.6-0.1-1.1-0.5-1.1-1.1
			C427.1,127,427.7,126.5,428.4,126.5L428.4,126.5z"/>
		<path class="st1" d="M443.5,119.7c0-0.6,0.5-1.1,1.1-1.1c0.2,0,0.5,0.1,0.7,0.2c1.2,1,2.8,1.7,4.7,1.7c2.5,0,3.9-1.1,3.9-2.7
			c0-1.8-2-2.4-4.2-2.9c-2.8-0.7-6-1.4-6-4.8c0-2.6,2.2-4.7,6.1-4.7c2.4,0,4.1,0.8,5.4,1.8c0.2,0.2,0.4,0.5,0.4,0.8
			c0,0.6-0.5,1.1-1.1,1.1c-0.2,0-0.4-0.1-0.6-0.2c-1-0.9-2.5-1.4-4.2-1.4c-2.2,0-3.6,1-3.6,2.5c0,1.6,1.9,2.1,4,2.6
			c2.9,0.7,6.1,1.5,6.1,5.1c0,2.8-2.2,5-6.5,5c-2.3,0-4.2-0.6-5.9-1.9C443.7,120.4,443.5,120.1,443.5,119.7L443.5,119.7z"/>
		<path class="st1" d="M467.6,121.1c0,0.5-0.2,0.8-0.6,0.9c-0.6,0.3-1.3,0.5-2.3,0.5c-2.4,0-3.6-1.4-3.6-3.8V108h-1.7
			c-0.6,0-1.1-0.5-1.1-1.1s0.5-1.1,1.1-1.1h1.7v-3.4c0-0.7,0.6-1.3,1.3-1.3s1.3,0.6,1.3,1.3v3.4h2.4c0.6,0,1.2,0.5,1.2,1.1
			s-0.5,1.1-1.2,1.1h-2.4v10.2c0,1.2,0.5,2.1,1.7,2.1c0.7,0,1-0.3,1.3-0.3C467.2,120,467.6,120.4,467.6,121.1L467.6,121.1z"/>
		<path class="st1" d="M477.6,105.3c5,0,7.9,3.9,7.9,8.2c0,0.8-0.5,1.3-1.5,1.3h-11.8c0.2,3.1,2.4,5.7,5.9,5.7
			c1.6,0,3.1-0.5,4.4-1.6c0.2-0.1,0.4-0.1,0.6-0.1c0.6,0,1,0.4,1,1c0,0.3-0.2,0.7-0.4,0.8c-1.6,1.3-3.6,1.9-5.9,1.9
			c-4.9,0-8.4-3.5-8.4-8.6C469.5,109.2,472.9,105.4,477.6,105.3L477.6,105.3z M472.2,112.9H483c0-2.4-1.7-5.5-5.4-5.5
			C474.1,107.5,472.4,110.4,472.2,112.9L472.2,112.9z"/>
		<path class="st1" d="M512,110.3V121c0,0.7-0.6,1.3-1.3,1.3s-1.3-0.6-1.3-1.3v-10c0-2.1-0.9-3.4-3-3.4c-1.7,0-3.5,1.2-4.4,2.5V121
			c0,0.7-0.6,1.3-1.3,1.3s-1.3-0.6-1.3-1.3v-10c0-2.1-0.9-3.4-3-3.4c-1.7,0-3.4,1.2-4.3,2.6V121c0,0.7-0.6,1.3-1.3,1.3
			c-0.7,0-1.3-0.6-1.3-1.3v-14.2c0-0.7,0.6-1.3,1.3-1.3c0.7,0,1.3,0.6,1.3,1.3v1.3c0.6-1,2.9-2.8,5.3-2.8s3.9,1.4,4.4,3.1
			c0.9-1.5,3.1-3.1,5.5-3.1C510.4,105.3,512,107,512,110.3L512,110.3z"/>
	</g>
</g>
</svg>
